# AST/ASF file generated using VICON BodyLanguage
# -----------------------------------------------
:version 1.10
:name VICON
:units
  mass 1.0
  length 0.45
  angle deg
:documentation
   .ast/.asf automatically generated from VICON data using
   VICON BodyBuilder and BodyLanguage model FoxedUp or BRILLIANT.MOD
:root
   order TX TY TZ RX RY RZ
   axis XYZ
   position 0 0 0  
   orientation 0 0 0 
:bonedata
  begin
     id 1 
     name lhipjoint
     direction 0.547975 -0.797114 0.253638 
     length 2.36201 
     axis 0 0 0  XYZ
  end
  begin
     id 2 
     name lfemur
     direction 0.34202 -0.939693 0  
     length 7.69075  
     axis 0 0 20  XYZ
    dof rx ry rz
    limits (-160.0 20.0)
           (-70.0 70.0)
           (-60.0 70.0)
  end
  begin
     id 3 
     name ltibia
     direction 0.34202 -0.939693 0   
     length 7.91399   
     axis 0 0 20   XYZ
    dof rx
    limits (-10.0 170.0)
  end
  begin
     id 4 
     name lfoot
     direction 0.0705293 -0.193778 0.978507   
     length 2.13618   
     axis -90 7.62852e-016 20   XYZ
    dof rx rz
    limits (-45.0 90.0)
           (-70.0 20.0)
  end
  begin
     id 5 
     name ltoes
     direction 1.53592e-011 -4.21925e-011 1   
     length 1.07518   
     axis -90 7.62852e-016 20   XYZ
    dof rx
    limits (-90.0 20.0)
  end
  begin
     id 6 
     name rhipjoint
     direction -0.57 -0.782963 0.249136   
     length 2.4047  
     axis 0 0 0  XYZ 
  end
  begin
     id 7 
     name rfemur
     direction -0.34202 -0.939693 0   
     length 7.51486   
     axis 0 0 -20   XYZ
    dof rx ry rz
    limits (-160.0 20.0)
           (-70.0 70.0)
           (-70.0 60.0)
  end
  begin
     id 8 
     name rtibia
     direction -0.34202 -0.939693 0   
     length 8.08317   
     axis 0 0 -20   XYZ
    dof rx
    limits (-10.0 170.0)
 end
 begin
     id 9 
     name rfoot
     direction -0.104954 -0.281256 0.953876   
     length 2.30343  
     axis -90 -7.62852e-016 -20   XYZ
    dof rx rz
    limits (-45.0 90.0)
           (-20.0 70.0)
  end
  begin
     id 10 
     name rtoes
     direction -1.53556e-011 -4.21922e-011 1   
     length 1.14803   
     axis -90 -7.62852e-016 -20   XYZ
    dof rx
    limits (-90.0 20.0)
  end
  begin
     id 11 
     name lowerback
     direction -0.0152855 0.99353 -0.11254   
     length 2.05311   
     axis 0 0 0   XYZ
    dof rx ry rz
    limits (-20.0 45.0)
           (-30.0 30.0)
           (-30.0 30.0)
  end
  begin
     id 12 
     name upperback
     direction -0.00157509 0.999443 -0.033332   
     length 2.06353   
     axis 0 0 0   XYZ
    dof rx ry rz
    limits (-20.0 45.0)
           (-30.0 30.0)
           (-30.0 30.0)
  end
  begin
     id 13 
     name thorax
     direction 0.00577788 0.999804 0.0189484   
     length 2.08472   
     axis 0 0 0   XYZ
    dof rx ry rz
    limits (-20.0 45.0)
           (-30.0 30.0)
           (-30.0 30.0)
  end
  begin
     id 14 
     name lowerneck
     direction -1.09301e-005 0.994719 0.10264   
     length 1.76249   
     axis 0 0 0   XYZ
    dof rx ry rz
    limits (-20.0 45.0)
           (-30.0 30.0)
           (-30.0 30.0)
  end
  begin
     id 15 
     name upperneck
     direction 0.0495018 0.988526 -0.142706   
     length 1.77897   
     axis 0 0 0   XYZ
    dof rx ry rz
    limits (-20.0 45.0)
           (-30.0 30.0)
           (-30.0 30.0)
  end
  begin
     id 16
     name head
     direction 0.0142736 0.998114 -0.0597101  
     length 1.78934  
     axis 0 0 0   XYZ
    dof rx ry rz
    limits (-20.0 45.0)
           (-30.0 30.0)
           (-30.0 30.0)
  end
  begin
     id 17 
     name lclavicle
     direction 0.918111 0.396107 -0.0130883  
     length 3.37276  
     axis 0 0 0   XYZ
    dof ry rz
    limits (-20.0 10.0)
           (0.0 20.0)
  end
  begin
     id 18 
     name lhumerus
     direction 1 -4.48975e-011 -3.26108e-027   
     length 5.34298   
     axis 180 -30 -90   XYZ
    dof rx ry rz
    limits (-60.0 90.0)
           (-90.0 90.0)
           (-90.0 90.0)
  end
  begin
     id 19
     name lradius
     direction 1 -4.48964e-011 -8.84413e-028   
     length 3.67262   
     axis 180 -30 -90   XYZ
    dof rx
    limits (-10.0 170.0)
  end
  begin
     id 20
     name lwrist
     direction 1 -4.48991e-011 -1.24264e-027   
     length 1.83631   
     axis -2.17013e-015 90 90   XYZ
    dof ry
    limits (-180.0 0.0)
 end
  begin
     id 21 
     name lhand
     direction 1 -4.48855e-011 -2.48528e-027   
     length 0.599298   
     axis 1.58582e-015 90 90   XYZ
    dof rx rz
    limits (-90.0 90.0)
           (-45.0 45.0)
  end
  begin
     id 22 
     name lfingers
     direction 1 -4.48811e-011 -4.97056e-027   
     length 0.48317   
     axis 3.17164e-015 90 90   XYZ
    dof rx
    limits (0.0 90.0)
  end
  begin
     id 23
     name lthumb
     direction 0.707107 -6.34882e-011 0.707107   
     length 0.693738   
     axis -90 45 2.85299e-015   XYZ
    dof rx rz
    limits (-45.0 45.0)
           (-45.0 45.0)
  end
  begin
     id 24 
     name rclavicle
     direction -0.920511 0.384752 -0.0680135   
     length 3.43787  
     axis 0 0 0   XYZ 
    dof ry rz
    limits (-10.0 20.0)
           (-20.0 0.0)
  end
  begin
     id 25 
     name rhumerus
     direction -0.999976 -0.00330524 0.00603274  
     length 5.5498   
     axis 180 30 90   XYZ
    dof rx ry rz
    limits (-90.0 60.0)
           (-90.0 90.0)
           (-90.0 90.0)
  end
  begin
     id 26 
     name rradius
     direction -1 -4.48967e-011 8.62438e-027   
     length 3.69401   
     axis 180 30 90   XYZ
    dof rx
    limits (-10.0 170.0)
  end
  begin
     id 27 
     name rwrist
     direction -1 -4.4897e-011 9.54866e-027   
     length 1.84701   
     axis -7.69462e-015 -90 -90   XYZ
    dof ry
    limits (-180.0 0.0)
  end
  begin
     id 28
     name rhand
     direction -1 -4.48982e-011 1.90973e-026   
     length 0.638113   
     axis -1.21857e-014 -90 -90   XYZ
    dof rx rz
    limits (-90.0 90.0)
           (-45.0 45.0)
  end
  begin
     id 29
     name rfingers
     direction -1 -4.48936e-011 3.81946e-026   
     length 0.514463   
     axis -2.43714e-014 -90 -90   XYZ
    dof rx
    limits (0.0 90.0)
  end
  begin
     id 30
     name rthumb
     direction -0.707107 -6.34942e-011 0.707107   
     length 0.738669   
     axis -90 -45 -2.85299e-015   XYZ
    dof rx rz
    limits (-45.0 45.0)
           (-45.0 45.0)
  end
:hierarchy
  begin
    root lhipjoint rhipjoint lowerback
    lhipjoint lfemur
    lfemur ltibia
    ltibia lfoot
    lfoot ltoes
    rhipjoint rfemur
    rfemur rtibia
    rtibia rfoot
    rfoot rtoes
    lowerback upperback
    upperback thorax
    thorax lowerneck lclavicle rclavicle
    lowerneck upperneck
    upperneck head
    lclavicle lhumerus
    lhumerus lradius
    lradius lwrist
    lwrist lhand lthumb
    lhand lfingers
    rclavicle rhumerus
    rhumerus rradius
    rradius rwrist
    rwrist rhand rthumb
    rhand rfingers
  end

#!OML:ASF F:\twosubjects\two\Thursday\Session 1\Rory.ASF
:FULLY-SPECIFIED
:DEGREES
97
root -1.72133 18.223 -1.8955 0.418075 4.76786 -3.65969
lowerback 4.95063 2.39021 -0.6083
upperback 2.47329 3.15667 -0.0297498
thorax -0.26237 1.57403 0.149178
lowerneck -0.413216 14.9272 10.9385
upperneck 16.6111 21.9898 -12.2595
head 7.77429 10.5486 -3.76021
rclavicle 3.97569e-016 4.77083e-015
rhumerus -34.8104 -16.5282 -75.7877
rradius 30.2269
rwrist 19.0303
rhand -20.4492 22.9518
rfingers 7.12502
rthumb 5.90619 -6.94591
lclavicle 3.97569e-016 4.77083e-015
lhumerus -22.7399 7.47704 87.4767
lradius 39.4632
lwrist -18.5292
lhand -5.20388 34.8731
lfingers 7.12502
lthumb 20.5975 63.8003
rfemur -4.94739 2.13882 18.7523
rtibia 22.0985
rfoot -16.0803 -10.1142
rtoes -13.7774
lfemur -27.3351 1.88512 -16.0709
ltibia 57.8147
lfoot -15.5828 1.58503
ltoes -5.37859
98
root -1.75312 18.2243 -1.78797 0.596196 4.9711 -3.89889
lowerback 4.91552 2.46708 -0.367889
upperback 2.45469 3.26946 -0.049367
thorax -0.248274 1.63243 -0.00933867
lowerneck -0.281413 14.9679 11.1443
upperneck 15.9263 21.9886 -12.4627
head 7.57374 10.5731 -3.87311
rclavicle 2.49475e-014 -2.14687e-014
rhumerus -34.65 -16.2163 -76.1931
rradius 30.2951
rwrist 18.7441
rhand -20.4898 23.1992
rfingers 7.12502
rthumb 5.86697 -6.69953
lclavicle 2.49475e-014 -2.14687e-014
lhumerus -22.9047 7.26075 87.5763
lradius 39.6091
lwrist -18.207
lhand -5.45184 36.0632
lfingers 7.12502
lthumb 20.3592 65.016
rfemur -4.73997 2.09464 19.2001
rtibia 22.0859
rfoot -16.5586 -10.383
rtoes -12.9005
lfemur -27.9206 2.03722 -15.9934
ltibia 57.0676
lfoot -15.3471 2.0065
ltoes -2.88063
99
root -1.77965 18.2333 -1.68744 0.99706 5.23706 -3.77653
lowerback 4.76651 2.57391 -0.379395
upperback 2.35971 3.41053 -0.218105
thorax -0.253654 1.70375 -0.177923
lowerneck 0.0591414 14.938 11.5254
upperneck 15.1213 21.9137 -12.8324
head 7.32989 10.575 -4.08937
rclavicle 1.28216e-014 -1.51076e-014
rhumerus -34.6722 -16.1448 -76.4474
rradius 30.4957
rwrist 18.7809
rhand -20.1346 23.6406
rfingers 7.12502
rthumb 6.20985 -6.24841
lclavicle 1.28216e-014 -1.51076e-014
lhumerus -23.3607 5.32037 88.3054
lradius 39.6583
lwrist -11.5396
lhand -14.1806 32.6694
lfingers 7.12502
lthumb 11.9549 62.308
rfemur -4.77401 1.83337 19.2057
rtibia 22.0938
rfoot -16.8273 -10.3747
rtoes -10.935
lfemur -28.7351 2.05019 -16.3254
ltibia 56.1757
lfoot -15.6238 1.23239
ltoes -1.77249
100
root -1.79993 18.2363 -1.57874 1.2784 5.51641 -3.57036
lowerback 4.6849 2.64646 -0.50833
upperback 2.27686 3.50118 -0.321528
thorax -0.294475 1.74865 -0.214749
lowerneck 0.28905 14.9537 11.4655
upperneck 14.4876 21.8721 -12.8571
head 7.07574 10.5805 -4.12766
rclavicle -8.34896e-015 1.19271e-014
rhumerus -34.8177 -16.0144 -76.5267
rradius 30.8311
rwrist 19.1993
rhand -20.1733 23.0608
rfingers 7.12502
rthumb 6.17251 -6.82926
lclavicle -8.34896e-015 1.19271e-014
lhumerus -23.7523 5.17147 88.4103
lradius 40.0495
lwrist -11.3662
lhand -13.8562 33.6543
lfingers 7.12502
lthumb 12.2677 63.2745
rfemur -4.65897 1.06883 19.0801
rtibia 22.1235
rfoot -16.9096 -10.0344
rtoes -10.1477
lfemur -29.3706 2.21735 -16.7791
ltibia 55.182
lfoot -15.5481 0.965182
ltoes -2.03779
101
root -1.82514 18.2278 -1.46436 1.10609 5.57006 -4.02422
lowerback 4.97905 2.76549 -0.0839444
upperback 2.3495 3.67744 -0.174336
thorax -0.366608 1.839 -0.322195
lowerneck -0.193556 15.0544 10.7304
upperneck 14.3439 21.869 -12.2293
head 6.95423 10.5606 -3.80909
rclavicle -2.3059e-014 -4.77083e-015
rhumerus -34.6707 -15.784 -76.6192
rradius 30.9915
rwrist 19.5441
rhand -20.3897 22.4885
rfingers 7.12502
rthumb 5.96359 -7.4076
lclavicle -2.3059e-014 -4.77083e-015
lhumerus -23.8206 5.19806 88.5811
lradius 40.0194
lwrist -11.288
lhand -14.071 33.4109
lfingers 7.12502
lthumb 12.0607 63.0433
rfemur -4.24893 1.08126 19.7502
rtibia 22.3082
rfoot -17.2234 -10.3033
rtoes -11.3726
lfemur -29.5224 2.62425 -16.4315
ltibia 54.0898
lfoot -15.2443 1.2225
ltoes -2.5658
102
root -1.85246 18.2215 -1.35678 1.24605 5.5938 -4.01922
lowerback 5.01656 2.853 -0.1977
upperback 2.37879 3.78821 -0.227561
thorax -0.360584 1.89379 -0.320197
lowerneck -0.647595 15.2381 10.6686
upperneck 14.2272 22.0429 -12.0462
head 6.98649 10.6326 -3.68669
rclavicle 4.11484e-014 -1.11319e-014
rhumerus -34.1612 -15.4843 -76.9426
rradius 30.6902
rwrist 19.9205
rhand -20.083 20.5276
rfingers 7.12502
rthumb 6.25966 -9.35987
lclavicle 4.11484e-014 -1.11319e-014
lhumerus -23.9145 5.64851 88.5206
lradius 40.1464
lwrist -11.4856
lhand -14.1714 32.6946
lfingers 7.12502
lthumb 11.9638 62.3327
rfemur -4.30796 1.43753 19.8906
rtibia 22.696
rfoot -17.8566 -10.7536
rtoes -12.3017
lfemur -29.8978 2.88867 -16.5237
ltibia 52.9143
lfoot -14.9389 1.12934
ltoes -1.51171
103
root -1.87297 18.2178 -1.25206 1.68413 5.7957 -3.47324
lowerback 4.80691 2.85271 -0.85488
upperback 2.26611 3.75839 -0.439645
thorax -0.387518 1.87536 -0.162667
lowerneck -0.509452 15.4101 11.295
upperneck 14.0016 22.3055 -12.4436
head 7.04202 10.7765 -3.86285
rclavicle 1.83876e-014 -1.74931e-014
rhumerus -33.8842 -15.1522 -77.2668
rradius 30.5127
rwrist 20.2749
rhand -19.1462 15.4732
rfingers 7.12502
rthumb 7.16403 -14.3856
lclavicle 1.83876e-014 -1.74931e-014
lhumerus -24.1804 5.9818 88.4173
lradius 40.3069
lwrist -11.3642
lhand -13.9624 32.5227
lfingers 7.12502
lthumb 12.1654 62.149
rfemur -4.57067 1.0347 19.3597
rtibia 23.0128
rfoot -18.3961 -10.7315
rtoes -12.7991
lfemur -30.5166 2.94559 -17.2203
ltibia 51.6385
lfoot -14.7227 0.890358
ltoes -1.32841
104
root -1.88669 18.1935 -1.14615 1.83444 5.95496 -3.25727
lowerback 4.83178 2.88983 -1.06618
upperback 2.27871 3.79759 -0.535317
thorax -0.395612 1.89396 -0.146087
lowerneck -0.426905 15.5554 11.5133
upperneck 13.6457 22.4907 -12.6418
head 6.98622 10.8774 -3.93816
rclavicle 3.47873e-014 -3.18055e-015
rhumerus -33.564 -14.8053 -77.5267
rradius 30.4803
rwrist 20.3949
rhand -20.1855 22.0769
rfingers 7.12502
rthumb 6.16075 -7.81355
lclavicle 3.47873e-014 -3.18055e-015
lhumerus -24.2739 6.13722 88.4506
lradius 40.3045
lwrist -11.1414
lhand -13.4229 33.366
lfingers 7.12502
lthumb 12.6855 62.9607
rfemur -4.41346 0.240032 19.1714
rtibia 23.1514
rfoot -18.7076 -10.4405
rtoes -13.4914
lfemur -30.8917 3.02159 -17.5397
ltibia 50.2905
lfoot -14.5523 1.02483
ltoes -2.97785
105
root -1.89752 18.1906 -1.0362 1.72195 6.02221 -3.37512
lowerback 4.98969 2.96403 -0.925465
upperback 2.45429 3.90168 -0.56464
thorax -0.292282 1.94669 -0.262387
lowerneck -0.310729 15.7339 11.7632
upperneck 12.9518 22.7067 -13.02
head 6.84704 10.9958 -4.07724
rclavicle -1.10325e-014 -5.56597e-015
rhumerus -33.0661 -14.4533 -77.8936
rradius 30.4658
rwrist 20.5802
rhand -20.5417 24.1265
rfingers 7.12502
rthumb 5.81687 -5.77369
lclavicle -1.10325e-014 -5.56597e-015
lhumerus -24.3411 6.63358 88.369
lradius 40.4832
lwrist -11.5339
lhand -13.7532 32.981
lfingers 7.12502
lthumb 12.367 62.5952
rfemur -3.85072 -0.1731 19.3952
rtibia 23.0742
rfoot -18.798 -10.4323
rtoes -14.3622
lfemur -30.8952 3.14227 -17.379
ltibia 48.8216
lfoot -14.3475 0.680821
ltoes -1.72081
106
root -1.90242 18.2153 -0.903884 1.6813 6.22892 -3.24731
lowerback 4.80905 2.964 -1.07505
upperback 2.63729 3.90034 -0.624758
thorax -0.00952402 1.9443 -0.224017
lowerneck -0.276254 15.9391 11.959
upperneck 12.5516 22.9795 -13.3052
head 6.80742 11.1322 -4.1588
rclavicle -2.08724e-014 1.35174e-014
rhumerus -32.737 -14.2048 -78.1464
rradius 30.561
rwrist 20.9897
rhand -20.483 24.3393
rfingers 7.12502
rthumb 5.87354 -5.55931
lclavicle -2.08724e-014 1.35174e-014
lhumerus -24.277 6.90565 88.2541
lradius 40.1504
lwrist -11.8155
lhand -14.4174 31.9859
lfingers 7.12502
lthumb 11.7266 61.6377
rfemur -3.09755 -0.576251 19.3241
rtibia 22.7541
rfoot -18.6483 -10.3722
rtoes -14.564
lfemur -30.7191 3.07188 -17.4424
ltibia 47.2591
lfoot -14.1928 0.14222
ltoes 0.390143
107
root -1.90195 18.2284 -0.761812 1.90633 6.40849 -2.83713
lowerback 4.31878 2.98296 -1.44009
upperback 2.72176 3.92275 -0.752523
thorax 0.334697 1.95103 -0.122034
lowerneck 0.117498 16.0672 12.039
upperneck 11.9253 23.1499 -13.5993
head 6.61048 11.24 -4.28198
rclavicle 2.60408e-014 -2.22639e-014
rhumerus -32.4452 -14.2517 -78.1401
rradius 30.4347
rwrist 21.5651
rhand -19.9581 24.6736
rfingers 7.12502
rthumb 6.38027 -5.21028
lclavicle 2.60408e-014 -2.22639e-014
lhumerus -23.9475 6.76667 88.2537
lradius 39.1244
lwrist -11.6644
lhand -13.6942 33.1661
lfingers 7.12502
lthumb 12.424 62.7769
rfemur -2.47905 -1.04234 18.8668
rtibia 22.2376
rfoot -18.4653 -10.0546
rtoes -14.4171
lfemur -30.7293 2.8193 -17.8401
ltibia 45.6494
lfoot -14.0102 0.594589
ltoes -1.45209
108
root -1.91108 18.2332 -0.647988 2.1198 6.44711 -2.72208
lowerback 4.24655 3.0624 -1.59922
upperback 2.68909 4.02397 -0.825905
thorax 0.335067 2.00031 -0.109888
lowerneck 0.911307 16.1471 12.3805
upperneck 10.8724 23.2715 -14.2141
head 6.27868 11.3529 -4.58513
rclavicle -6.92765e-014 2.62396e-014
rhumerus -32.1503 -14.148 -78.2559
rradius 30.2973
rwrist 21.8712
rhand -19.7003 24.6913
rfingers 7.12502
rthumb 6.62914 -5.18489
lclavicle -6.92765e-014 2.62396e-014
lhumerus -24.0699 6.79914 88.1643
lradius 38.8318
lwrist -11.57
lhand -12.0621 34.9306
lfingers 7.12502
lthumb 13.9971 64.4394
rfemur -1.96755 -0.893148 18.8599
rtibia 21.6968
rfoot -18.6007 -10.353
rtoes -15.3492
lfemur -30.9084 2.56117 -17.7799
ltibia 43.9949
lfoot -13.4428 1.19973
ltoes -2.40734
109
root -1.92541 18.2334 -0.548614 2.2276 6.64468 -2.79494
lowerback 4.485 3.10052 -1.65396
upperback 2.64054 4.06561 -0.843372
thorax 0.149694 2.0217 -0.11509
lowerneck 1.1963 16.2449 12.4132
upperneck 10.2272 23.3608 -14.3546
head 6.0625 11.4234 -4.66078
rclavicle -1.15295e-014 2.06736e-014
rhumerus -31.943 -13.8773 -78.4922
rradius 30.4435
rwrist 21.88
rhand -19.6063 24.4236
rfingers 7.12502
rthumb 6.71985 -5.44978
lclavicle -1.15295e-014 2.06736e-014
lhumerus -24.2888 6.66936 88.0628
lradius 38.6836
lwrist -11.1699
lhand -11.626 35.3169
lfingers 7.12502
lthumb 14.4173 64.7961
rfemur -1.4625 -0.798558 19.1098
rtibia 21.2723
rfoot -18.9068 -10.7606
rtoes -15.6372
lfemur -31.1265 2.22351 -17.3944
ltibia 42.4106
lfoot -12.8582 1.07078
ltoes -0.668166
110
root -1.93608 18.2381 -0.441375 2.28633 6.87002 -2.75485
lowerback 4.67815 3.12436 -1.81224
upperback 2.66362 4.08634 -0.871096
thorax 0.0570474 2.03099 -0.0674688
lowerneck 1.13057 16.3956 12.2473
upperneck 9.89987 23.4991 -14.2272
head 5.95415 11.4954 -4.58808
rclavicle -3.4191e-014 2.78299e-014
rhumerus -31.7087 -13.7336 -78.6645
rradius 30.6267
rwrist 21.8163
rhand -19.1854 24.2666
rfingers 7.12502
rthumb 7.12616 -5.59342
lclavicle -3.4191e-014 2.78299e-014
lhumerus -24.1063 6.54374 88.0805
lradius 38.0199
lwrist -10.6219
lhand -12.8885 34.9438
lfingers 7.12502
lthumb 13.2007 64.5058
rfemur -0.95277 -0.960328 19.1739
rtibia 20.8417
rfoot -18.8382 -10.8652
rtoes -15.6107
lfemur -31.2704 1.89574 -17.1442
ltibia 40.8942
lfoot -12.4283 1.18182
ltoes -2.02417
111
root -1.94129 18.238 -0.333943 2.38572 7.01374 -2.8788
lowerback 4.75643 3.15179 -1.76796
upperback 2.69786 4.12308 -0.86212
thorax 0.0506972 2.04966 -0.0880703
lowerneck 0.891766 16.5552 12.3012
upperneck 9.84517 23.7028 -14.3171
head 6.02231 11.5812 -4.57044
rclavicle -9.74045e-015 -1.59028e-014
rhumerus -31.3998 -13.5626 -78.8396
rradius 30.6839
rwrist 21.8905
rhand -19.4158 24.2602
rfingers 7.12502
rthumb 6.90377 -5.60724
lclavicle -9.74045e-015 -1.59028e-014
lhumerus -24.0141 6.88476 88.0597
lradius 37.6255
lwrist -10.7229
lhand -13.619 34.6085
lfingers 7.12502
lthumb 12.4964 64.2149
rfemur -0.492333 -1.06178 19.4031
rtibia 20.3471
rfoot -18.3459 -11.0664
rtoes -17.5186
lfemur -31.4736 1.36237 -16.641
ltibia 39.4608
lfoot -11.9072 1.9473
ltoes -4.07963
